<?xml version="1.0" standalone="no"?><!DOCTYPE svg PUBLIC "-//W3C//DTD SVG 1.1//EN" "http://www.w3.org/Graphics/SVG/1.1/DTD/svg11.dtd"><svg t="1601034973655" class="icon" viewBox="0 0 1024 1024" version="1.1" xmlns="http://www.w3.org/2000/svg" p-id="52863" xmlns:xlink="http://www.w3.org/1999/xlink" width="200" height="200"><defs><style type="text/css"></style></defs><path d="M512 949.138286c238.72 0 437.138286-198.418286 437.138286-437.138286 0-239.140571-198.857143-437.138286-437.577143-437.138286C272.438857 74.861714 74.88 272.859429 74.88 512c0 238.72 197.997714 437.138286 437.138286 437.138286z m190.281143-636.416c53.138286 52.699429 48.438857 117.851429-12.854857 178.706285l-73.709715 74.148572c5.997714-20.571429 5.577143-44.580571-1.28-60.854857l43.282286-43.300572c42.002286-41.142857 46.701714-84.425143 13.275429-117.430857-32.987429-32.548571-76.288-27.428571-117.430857 13.714286l-61.275429 60.434286c-42.422857 42.861714-48 86.582857-14.573714 119.149714 9.856 10.276571 24.429714 16.713143 43.282285 20.132571-6.436571 13.714286-19.712 29.586286-32.146285 38.144-12.854857-2.139429-29.147429-12.434286-42.861715-26.569143-53.138286-52.717714-47.561143-118.710857 14.573715-181.284571l62.573714-62.134857c61.293714-61.293714 126.427429-65.572571 179.145143-12.854857zM306.285714 708.717714c-53.138286-52.717714-48.438857-117.869714 13.293715-178.724571l73.691428-74.130286c-6.4 20.571429-5.979429 44.562286 0.877714 60.854857l-43.300571 43.282286c-42.002286 40.722286-46.701714 84.425143-13.275429 117.430857 33.005714 32.566857 76.708571 27.428571 117.430858-13.714286l61.275428-60.434285c42.422857-42.861714 48-86.564571 14.573714-119.131429-9.856-10.294857-24.429714-16.731429-43.282285-20.150857 6.418286-13.714286 19.712-29.568 32.146285-38.144 12.854857 2.139429 29.129143 12.434286 43.282286 26.569143 52.717714 52.717714 47.140571 118.290286-14.994286 180.845714l-62.573714 62.592c-61.293714 61.275429-126.427429 65.572571-179.145143 12.854857z" p-id="52864" fill="#5A67D8"></path></svg>