<?xml version="1.0" standalone="no"?><!DOCTYPE svg PUBLIC "-//W3C//DTD SVG 1.1//EN" "http://www.w3.org/Graphics/SVG/1.1/DTD/svg11.dtd"><svg t="1601034523652" class="icon" viewBox="0 0 1024 1024" version="1.1" xmlns="http://www.w3.org/2000/svg" p-id="43358" xmlns:xlink="http://www.w3.org/1999/xlink" width="200" height="200"><defs><style type="text/css"></style></defs><path d="M307.2 392.533333m-34.133333 0a2 2 0 1 0 68.266667 0 2 2 0 1 0-68.266667 0Z" p-id="43359" fill="#02c15f"></path><path d="M571.733333 571.733333m-25.6 0a1.5 1.5 0 1 0 51.2 0 1.5 1.5 0 1 0-51.2 0Z" p-id="43360" fill="#02c15f"></path><path d="M477.866667 392.533333m-34.133333 0a2 2 0 1 0 68.266667 0 2 2 0 1 0-68.266667 0Z" p-id="43361" fill="#02c15f"></path><path d="M708.266667 571.733333m-25.6 0a1.5 1.5 0 1 0 51.2 0 1.5 1.5 0 1 0-51.2 0Z" p-id="43362" fill="#02c15f"></path><path d="M512 0C228.693333 0 0 228.693333 0 512s228.693333 512 512 512 512-228.693333 512-512S795.306667 0 512 0zM406.186667 643.413333c-29.013333 0-52.906667-6.826667-81.92-11.946667l-81.92 40.96 23.893333-71.68c-59.733333-40.96-93.866667-95.573333-93.866667-160.426667C170.666667 327.68 276.48 238.933333 406.186667 238.933333c116.053333 0 216.746667 71.68 237.226667 167.253333-6.826667 0-15.36-1.706667-22.186667-1.706667-112.64 0-199.68 83.626667-199.68 187.733333 0 17.066667 3.413333 34.133333 6.826667 49.493333C421.546667 643.413333 413.013333 643.413333 406.186667 643.413333zM761.173333 737.28l17.066667 59.733333-64.853333-35.84c-23.893333 5.12-47.786667 11.946667-69.973333 11.946667-112.64 0-199.68-76.8-199.68-172.373333C443.733333 503.466667 532.48 426.666667 643.413333 426.666667c105.813333 0 199.68 76.8 199.68 172.373333C844.8 653.653333 808.96 701.44 761.173333 737.28z" p-id="43363" fill="#02c15f"></path></svg>